<svg width="460" height="318" viewBox="0 0 460 318" fill="none" xmlns="http://www.w3.org/2000/svg">
<g clip-path="url(#clip0_106_1237)">
<rect width="460" height="318" fill="#204EC7"/>
<g clip-path="url(#clip1_106_1237)">
<path d="M105.6 37.5C105.6 37.5 207.6 -22.2 306.4 41C405.2 104.2 379.2 233.7 379.2 233.7C379.2 233.7 363.3 217 334 222.4C334 222.4 334.5 182.4 291.3 186.1C291.3 186.1 269.6 135.6 222.6 149.5C222.6 149.5 213.8 104.4 157.1 110.1C157 110.1 144.4 58.6 105.6 37.5Z" fill="#8FA6E3"/>
<g opacity="0.4">
<g opacity="0.4">
<path opacity="0.4" d="M105.6 37.5C105.6 37.5 207.6 -22.2 306.4 41C405.2 104.2 379.2 233.7 379.2 233.7C379.2 233.7 363.3 217 334 222.4C334 222.4 334.5 182.4 291.3 186.1C291.3 186.1 269.6 135.6 222.6 149.5C222.6 149.5 213.8 104.4 157.1 110.1C157 110.1 144.4 58.6 105.6 37.5Z" fill="black"/>
</g>
</g>
<path d="M295.8 212.6C296.8 204.5 292 196 284.5 192.8C279 190.5 272.1 190.5 268.4 185.8C264.3 180.7 266.4 172.6 262.8 167.1C258.7 160.8 248.7 160.4 244.8 154.1C241.8 149.3 243.3 142.8 240.6 137.8C237.8 132.6 231.3 130.6 227.5 126.1C223.3 121.1 222.2 113.1 216.3 110.4C212.9 108.8 208.8 109.6 205.6 111.5C202.4 113.4 199.9 116.2 197.4 119.1C187.5 130.4 177.6 141.6 167.8 152.9C167 153.8 166.1 154.8 165.8 156C164.8 159.3 167.8 162.3 170.2 164.8C176.1 171 179.8 179.2 180.6 187.7C181.1 193 180.8 199.3 184.9 202.7C188.1 205.3 193.1 205.2 195.9 208.3C199.9 212.7 196.7 219.8 197.7 225.7C198.7 231.2 203.5 235.2 208.5 237.7C213.5 240.2 219 241.7 223.6 244.8C228.2 247.9 232 253.4 230.8 258.8C240.8 254 250 247.6 258 240C255.6 236.5 253.2 233.1 250.9 229.6C255.1 232.2 259.3 234.9 263.6 237.5C265.3 234.5 268.6 233 271.4 231.1C274.2 229.1 276.7 225.8 275.5 222.6C274.1 218.7 268.2 217.5 267.7 213.5C273.2 214.8 278.2 218 281.7 222.4C287.1 220.2 292.8 217.9 295.8 212.6Z" fill="#263238"/>
<path d="M209.2 192.1C219.1 184.3 227.6 186.9 237 189.2C246.3 191.5 253.8 200.3 260.5 207.2C267.2 214.1 273.1 221.7 280.3 228.1C287.5 234.4 296.4 239.4 306 239.6C313.1 239.7 320.1 237.1 327.1 238.1C334 239.1 340.3 243.8 343.2 250.1C340.5 256.7 337.8 263.2 335.2 269.8C331.9 261.5 321.9 258.2 313 258C304.1 257.8 295.1 259.8 286.4 258C275.9 255.8 267.4 248.4 260.1 240.6C252.8 232.8 246.2 224.1 237.3 218.2C228.4 212.2 216.5 209.4 207 214.4" fill="#8FA6E3"/>
<g opacity="0.4">
<g opacity="0.4">
<path opacity="0.4" d="M209.2 192.1C219.1 184.3 227.6 186.9 237 189.2C246.3 191.5 253.8 200.3 260.5 207.2C267.2 214.1 273.1 221.7 280.3 228.1C287.5 234.4 296.4 239.4 306 239.6C313.1 239.7 320.1 237.1 327.1 238.1C334 239.1 340.3 243.8 343.2 250.1C340.5 256.7 337.8 263.2 335.2 269.8C331.9 261.5 321.9 258.2 313 258C304.1 257.8 295.1 259.8 286.4 258C275.9 255.8 267.4 248.4 260.1 240.6C252.8 232.8 246.2 224.1 237.3 218.2C228.4 212.2 216.5 209.4 207 214.4" fill="black"/>
</g>
</g>
<path d="M325.9 260.8C326 260.8 326.5 259.7 327.3 257.8C328.1 255.9 329 253.3 330 250.4C330.9 247.5 331.6 244.7 332.1 242.8C332.5 240.8 332.7 239.6 332.7 239.6C332.6 239.6 332.3 240.8 331.8 242.7C331.3 244.6 330.5 247.3 329.6 250.3C328.7 253.2 327.8 255.9 327.1 257.8C326.2 259.6 325.8 260.8 325.9 260.8Z" fill="#1F4DC5"/>
<path d="M309.399 257.5C309.499 257.5 309.899 256.5 310.499 254.9C311.099 253.2 311.899 250.9 312.599 248.3C313.299 245.7 313.899 243.3 314.199 241.6C314.499 239.9 314.699 238.8 314.599 238.8C314.499 238.8 314.299 239.8 313.799 241.6C313.399 243.3 312.799 245.7 312.099 248.3C311.399 250.9 310.599 253.2 310.099 254.9C309.599 256.4 309.299 257.5 309.399 257.5Z" fill="#1F4DC5"/>
<path d="M291.6 258.9C291.7 259 293.5 254.5 295.6 249C297.7 243.5 299.3 238.9 299.1 238.9C299 238.8 297.2 243.3 295.1 248.8C293.1 254.3 291.5 258.8 291.6 258.9Z" fill="#1F4DC5"/>
<path d="M278.5 253.7C278.6 253.7 279.1 252.6 279.8 250.6C280.5 248.7 281.5 246 282.5 243C283.5 240 284.3 237.3 284.8 235.3C285.3 233.3 285.6 232.1 285.5 232.1C285.4 232.1 285 233.3 284.4 235.2C283.7 237.3 282.9 239.9 282 242.8C281 245.7 280.2 248.3 279.5 250.4C278.9 252.5 278.5 253.7 278.5 253.7Z" fill="#1F4DC5"/>
<path d="M266.9 246.1C267 246.1 268.9 241 271.1 234.5C273.3 228.1 274.9 222.8 274.8 222.8C274.7 222.8 272.8 227.9 270.6 234.4C268.4 240.8 266.8 246.1 266.9 246.1Z" fill="#1F4DC5"/>
<path d="M260.1 223C260.2 223.1 261.4 220.5 262.8 217.3C264.1 214.1 265.1 211.5 265 211.4C264.9 211.3 263.7 213.9 262.3 217.1C260.9 220.3 259.9 222.9 260.1 223Z" fill="#1F4DC5"/>
<path d="M249 208.1C249.1 208.2 250.2 206.4 251.4 204.2C252.6 202 253.4 200.1 253.3 200C253.2 199.9 252.1 201.7 250.9 203.9C249.7 206.2 248.9 208.1 249 208.1Z" fill="#1F4DC5"/>
<path d="M233.7 198.9C233.8 198.9 234.7 196.9 235.7 194.4C236.7 191.9 237.6 189.9 237.5 189.8C237.4 189.7 236.3 191.7 235.2 194.2C234.1 196.7 233.5 198.8 233.7 198.9Z" fill="#1F4DC5"/>
<path d="M219.299 195.1C219.399 195.1 219.7 193.3 219.6 191C219.5 188.7 218.999 186.9 218.799 187C218.699 187 218.899 188.8 218.999 191.1C219.199 193.3 219.099 195.1 219.299 195.1Z" fill="#1F4DC5"/>
<path d="M231 289.7L245.9 205.7C231.8 194.1 216.6 194.9 216.6 194.9L167.5 195.3C167.5 195.3 164.4 195.5 159.8 196.9C153.8 197.3 142.5 199.6 134 213.6C125 228.5 111.9 259 111.9 259L109.1 224.8L87.1999 218.1C68.9999 266.6 80.6999 303.3 100.8 306.3C117.5 308.8 133.7 288.5 133.7 288.5L141.8 274.6L143.6 283.8L148.4 306.7L130.9 345.9C137 345.9 141.1 346.2 148.7 345.9H242.4C241.7 338.8 232.7 329.9 232.7 329.9C226.3 318.9 228 302.3 231 289.7Z" fill="#FAC502"/>
<path d="M111.3 274.4C111.6 274.4 112 270.7 112.1 266.2C112.2 261.6 112.1 257.9 111.8 257.9C111.5 257.9 111.1 261.6 111 266.1C110.9 270.7 111 274.4 111.3 274.4Z" fill="#263238"/>
<g opacity="0.2">
<g opacity="0.2">
<g opacity="0.2">
<path opacity="0.2" d="M235.6 333C236 333.1 238 336 237.4 337.3C236.9 338.6 235.4 339.3 234 339.3C232.6 339.4 231.3 338.9 229.9 338.5C214.2 333.2 198.6 327.8 182.9 322.5C175.7 320.1 168.6 317.6 161.4 315.2C158.9 314.4 156.1 313.1 155.6 310.6C155.4 309.8 155.6 308.9 155.3 308.2C154.9 307 153.6 306.2 152.4 305.8C151.2 305.4 149.9 305.1 148.8 304.3C147.8 303.5 147 301 147.7 299.9C147.6 300.1 155.5 301 159.4 303C159.1 304.6 158.1 308.6 158.1 308.6C158.1 308.6 162.3 309.7 163.8 310.3C188.8 320.2 210.7 324.5 235.6 333Z" fill="black"/>
</g>
</g>
</g>
<path d="M109.2 158.3L142.8 212.7L116.4 220.1L87.1003 174.9L109.2 158.3Z" fill="#E9EEFA"/>
<path d="M111.3 204.7L110.2 212.7L105.5 218.7L105 223.6L88.2004 218.5L95.0004 194.5C95.0004 194.5 93.9004 187.5 94.3004 184.7L98.9004 190.8L100.2 180.8L109.7 173.2C110.7 172.4 112.2 172.7 112.9 173.7C113.6 174.6 113.5 175.9 112.6 176.7L105 183.4L104.5 191.7L110 186.6C110.5 186.1 111.2 185.7 111.9 185.6L119.6 184.1C120.8 183.9 121.9 184.7 122 185.9C122.1 186.8 121.5 187.7 120.6 188L113.6 190.1L106.5 197.2L113.4 194.6L122.8 195.9C123.7 196 124.4 196.8 124.4 197.7C124.4 198.7 123.5 199.6 122.5 199.5L116.5 199.2L113 200.3L121.1 202.4C121.8 202.6 122.3 203.3 122.3 204.1C122.3 205 121.5 205.7 120.5 205.6L111.3 204.7Z" fill="#FFBE9D"/>
<path d="M142.8 212.7C142.8 212.7 145.1 209.6 144.9 209.1C144.7 208.6 113 156.3 113 156.3L109.3 158.3L142.8 212.7Z" fill="#263238"/>
<path d="M100.8 172C100.2 171.4 99.1001 171.7 98.9001 172.5C98.7001 173.3 99.5001 174.1 100.3 174C101 173.8 101.4 172.7 100.8 172Z" fill="#263238"/>
<path d="M236.5 200C236.5 200 261.5 207.6 266.9 245C268.8 257.9 271.1 287.7 271.9 309.8C272.4 324.3 267 332.5 258.3 335.5C253.7 337.1 248.7 336.9 244 335.5L158.4 308.9L165.8 273L230.2 290.3L228.6 263.7L236.5 200Z" fill="#FAC502"/>
<path d="M242 304C242 304 241.8 302.3 240.3 299.5C238.7 296.8 235.6 293.1 230.4 290.2C215.9 286.5 193.2 280.8 166.8 274.2L166.3 274.1L166.2 274.6C164.5 281.9 162.7 289.5 160.8 297.4C159.9 301.2 159.1 304.9 158.2 308.4L158.1 308.9L158.6 309.1C184.3 317.6 207.3 324.8 223.8 329.8C232.1 332.3 238.7 334.2 243.4 335.5C245.6 336.1 247.4 336.6 248.7 336.9C249.3 337 249.7 337.1 250.1 337.2C250.4 337.3 250.6 337.3 250.6 337.3C250.6 337.3 250.5 337.2 250.1 337.1C249.7 337 249.3 336.8 248.7 336.7C247.4 336.3 245.7 335.8 243.4 335.1C238.7 333.6 232.1 331.6 223.9 329C207.4 323.8 184.5 316.4 158.8 307.9L159.2 308.6C160 305.1 160.9 301.4 161.8 297.6C163.6 289.7 165.4 282.1 167.1 274.8L166.4 275.2C192.9 281.7 215.6 287.2 230.1 290.8H230C235.1 293.6 238.3 297.1 239.9 299.7C241.6 302.3 241.9 304 242 304Z" fill="#263238"/>
<path d="M230.3 258C230 258 230 265.4 230.3 274.5C230.6 283.6 231.1 291 231.4 291C231.7 291 231.7 283.6 231.4 274.5C231.1 265.3 230.6 257.9 230.3 258Z" fill="#263238"/>
<path d="M121.1 239.2C121.1 239.2 121.7 239.1 122.7 239.1C123.8 239.1 125.4 239.4 127.2 240.3C129 241.2 131 242.8 133.1 244.8C134.1 245.8 135.3 246.9 136.5 248C137.8 249.1 139.3 250.1 141 250.8C144.5 252.2 148.7 252.2 153 251.5C157.3 250.8 161.7 249.2 166.4 248.3C168.8 247.9 171.3 247.6 173.8 247.8C176.3 248 178.8 248.8 181.1 250.1C185.7 252.6 189.7 256.5 194.3 259.7C196.6 261.3 199.1 262.6 201.8 263.4C204.4 264.2 207.2 264.5 209.9 264.4C212.6 264.3 215.2 263.7 217.6 262.8C220 261.9 222.2 260.6 224.2 259.2C228.2 256.4 231.6 253.2 235.1 250.8C238.6 248.3 242.3 246.6 245.9 246C249.5 245.4 252.9 245.6 255.7 246.3C258.5 247 260.8 248 262.6 249C266.2 251.1 267.6 252.9 267.7 252.8C267.7 252.8 267.6 252.7 267.4 252.5C267.2 252.3 266.9 252 266.5 251.6C266.1 251.2 265.6 250.8 265 250.3C264.3 249.8 263.6 249.3 262.7 248.8C260.9 247.7 258.6 246.7 255.8 246C253 245.3 249.6 245 245.9 245.6C244.1 245.9 242.2 246.5 240.3 247.3C238.4 248.1 236.6 249.2 234.8 250.4C231.2 252.9 227.8 256 223.8 258.8C221.8 260.2 219.7 261.5 217.3 262.4C215 263.3 212.4 263.9 209.8 263.9C207.2 264 204.5 263.7 201.9 262.9C199.3 262.1 196.9 260.8 194.6 259.3C190 256.1 186.1 252.2 181.3 249.7C179 248.4 176.4 247.6 173.8 247.4C171.2 247.2 168.7 247.4 166.3 247.9C161.5 248.8 157.1 250.4 152.9 251.1C148.7 251.9 144.5 251.8 141.1 250.5C137.7 249.2 135.4 246.6 133.2 244.7C131.1 242.7 129.1 241.1 127.2 240.2C125.3 239.3 123.7 239 122.6 239.1C121.6 239 121.1 239.2 121.1 239.2Z" fill="#1F4DC5"/>
<path d="M133.901 215.2C133.901 215.2 134.001 215.3 134.101 215.5C134.301 215.7 134.501 216 134.801 216.3C135.401 217 136.401 217.9 137.801 218.8C139.201 219.7 141.101 220.7 143.401 221.4C145.701 222 148.601 222.3 151.601 221.8C154.601 221.3 157.801 220.3 161.301 219.8C164.801 219.2 168.601 220 172.101 221.9C175.601 223.8 178.801 226.5 182.401 229.1C184.201 230.4 186.001 231.6 188.101 232.6C190.101 233.6 192.301 234.4 194.601 234.9C199.201 235.9 203.801 235.8 208.101 234.8C212.401 233.7 216.201 231.8 219.701 229.8C223.201 227.8 226.301 225.6 229.401 223.8C232.401 221.9 235.301 220.4 238.101 219.2C243.701 216.9 248.701 216.6 252.101 217.2C253.801 217.5 255.001 217.8 255.901 218.2C256.301 218.3 256.601 218.5 256.801 218.6C257.001 218.7 257.101 218.7 257.101 218.7C257.101 218.7 257.001 218.6 256.801 218.5C256.601 218.4 256.301 218.2 255.901 218.1C255.101 217.8 253.801 217.3 252.101 217C248.801 216.4 243.601 216.6 238.001 218.9C235.201 220 232.201 221.6 229.201 223.4C226.101 225.2 223.001 227.4 219.501 229.4C216.101 231.4 212.301 233.3 208.101 234.3C203.901 235.4 199.301 235.4 194.801 234.4C192.601 233.9 190.401 233.1 188.401 232.2C186.401 231.2 184.601 230 182.801 228.7C179.301 226.2 176.001 223.4 172.501 221.5C170.701 220.5 168.901 219.8 167.001 219.5C166.101 219.3 165.101 219.2 164.201 219.2C163.301 219.2 162.401 219.3 161.501 219.4C157.901 219.9 154.801 221 151.801 221.5C148.801 222 146.101 221.8 143.801 221.2C141.501 220.6 139.601 219.6 138.201 218.7C136.801 217.8 135.801 216.9 135.201 216.3C134.901 216 134.701 215.7 134.501 215.6C134.001 215.3 133.901 215.2 133.901 215.2Z" fill="#1F4DC5"/>
<path d="M231.3 284.6C231.3 284.7 233.5 283.6 237.3 282.6C237.8 282.5 238.3 282.4 238.8 282.2C239.3 282.1 239.9 282 240.4 281.9C241.5 281.7 242.8 281.6 244 281.5C246.6 281.4 249.4 281.4 252.4 281.8C255.3 282.3 258.1 283 260.5 283.9C261.7 284.4 262.8 284.8 263.9 285.4C264.4 285.7 264.9 285.9 265.4 286.1C265.9 286.4 266.3 286.6 266.7 286.9C270 288.9 271.8 290.6 271.9 290.5C271.9 290.5 271.5 290.1 270.7 289.3C270.3 288.9 269.8 288.5 269.1 288C268.5 287.5 267.8 287 266.9 286.5C266.5 286.2 266 286 265.6 285.7C265.1 285.4 264.6 285.2 264.1 284.9C263.1 284.3 261.9 283.9 260.7 283.4C258.3 282.5 255.5 281.7 252.5 281.2C249.5 280.8 246.6 280.7 244 280.9C242.7 281 241.5 281.1 240.3 281.4C239.7 281.5 239.2 281.6 238.7 281.7C238.2 281.8 237.7 282 237.2 282.1C236.2 282.3 235.4 282.7 234.7 282.9C234 283.1 233.3 283.4 232.8 283.6C231.9 284.3 231.3 284.6 231.3 284.6Z" fill="#1F4DC5"/>
<path d="M207.9 285.4C207.9 285.4 208.5 285.8 209.2 286.9C210 288 210.7 289.7 210.9 292.1C211.2 294.4 210.8 297.2 210.9 300.3C210.9 301.9 211.1 303.5 211.7 305.2C212.3 306.8 213.3 308.3 214.4 309.7C216.7 312.5 219.5 314.6 221.7 316.7C224 318.8 225.8 320.9 226.7 323.1C227.7 325.2 227.9 327.1 227.9 328.4C227.8 329.7 227.6 330.4 227.6 330.4C227.6 330.4 227.7 330.2 227.8 329.9C227.9 329.6 228 329.1 228.1 328.4C228.2 327.1 228 325.1 227 322.9C226.1 320.7 224.2 318.5 222 316.3C219.7 314.1 217 312.1 214.8 309.3C213.7 307.9 212.8 306.5 212.2 304.9C211.6 303.4 211.4 301.7 211.4 300.2C211.3 297.1 211.7 294.3 211.3 291.9C211 289.5 210.2 287.7 209.4 286.7C208.6 285.7 207.9 285.4 207.9 285.4Z" fill="#1F4DC5"/>
<path d="M168.801 311.2C168.801 311.2 168.901 310.7 169.001 309.8C169.101 308.9 169.501 307.6 170.301 306.3C171.101 304.9 172.301 303.4 173.701 301.8C175.101 300.2 176.801 298.5 178.201 296.4C181.201 292.3 182.401 287.8 182.801 284.6C183.001 283 183.101 281.7 183.101 280.7C183.101 279.8 183.101 279.3 183.101 279.3C183.101 279.3 183.001 279.8 182.901 280.7C182.801 281.6 182.701 282.9 182.401 284.5C181.901 287.7 180.701 292.1 177.801 296.1C176.301 298.1 174.701 299.8 173.301 301.4C171.901 303 170.701 304.6 169.901 306C169.101 307.4 168.801 308.8 168.701 309.7C168.701 310.2 168.701 310.5 168.701 310.8C168.801 311.1 168.801 311.2 168.801 311.2Z" fill="#1F4DC5"/>
<path d="M113.5 264.6C113.5 264.6 113.601 264.9 113.701 265.5C113.801 265.8 113.9 266.2 114.1 266.6C114.3 267 114.401 267.5 114.701 268C115.201 269 115.901 270.1 116.701 271.3C117.601 272.5 118.7 273.7 120 274.8C121.3 275.9 122.6 276.8 123.9 277.6C125.2 278.3 126.4 278.9 127.5 279.2C128.6 279.6 129.4 279.8 130 279.9C130.6 280 131 280.1 131 280C131 279.9 129.7 279.6 127.6 278.9C126.6 278.5 125.4 277.9 124.1 277.2C122.9 276.5 121.6 275.5 120.3 274.4C119.1 273.3 118 272.1 117.1 271C116.2 269.8 115.5 268.8 115 267.8C114 265.9 113.5 264.6 113.5 264.6Z" fill="#1F4DC5"/>
<path d="M78.0004 266.4C78.1004 266.5 79.3004 264.7 81.8004 262.3C83.0004 261.1 84.6004 259.8 86.5004 258.5C88.4004 257.2 90.6004 256.1 93.1004 255.1C96.7004 253.7 100.3 253.1 103.3 252.9C106.3 252.7 108.7 253.1 110.2 253.3H110.4L110.3 253.1C109.7 252.2 109.3 251.8 109.3 251.8C109.3 251.8 109.6 252.3 110.1 253.2L110.2 253C108.7 252.7 106.3 252.3 103.3 252.4C100.2 252.5 96.6004 253.1 92.9004 254.5C90.4004 255.5 88.1004 256.6 86.2004 257.9C84.3004 259.2 82.7004 260.5 81.5004 261.8C80.9004 262.4 80.4004 263 79.9004 263.5C79.7004 263.8 79.5004 264 79.3004 264.2C79.1004 264.4 79.0004 264.7 78.8004 264.9C78.2004 265.9 77.9004 266.4 78.0004 266.4Z" fill="#1F4DC5"/>
<path d="M159.4 106.6C159.7 110.6 157 114.2 154.3 117.3C151.6 120.3 148.6 123.5 148 127.5C147 134.6 153.9 141.2 152.5 148.2C151.7 152 148.6 155 148.1 158.8C147.6 162.5 149.5 166.1 152 168.9C154.4 171.7 157.4 174 159.6 177.1C161.9 180.3 163.1 184.1 164.8 187.6C166.4 191.2 168.6 194.7 172.1 196.6C177.3 199.4 184.5 198.1 188.5 202.4C192.3 206.6 191.1 214.3 195.9 217.5" fill="#263238"/>
<path d="M221.4 112.7C221.5 109 218.1 106.2 214.7 104.9C211.3 103.6 207.5 103.1 204.5 101C201.8 99.2001 200 96.4001 197.7 94.1001C192.1 88.4001 183.4 86.1001 175.7 88.2001C168 90.3001 161.7 96.7001 159.8 104.5C158.5 109.7 159.4 115.9 163.5 119.3C168.3 123.3 175.3 122.4 181.5 121.2C187.6 119.9 194.5 118.7 199.6 122.3C202.7 124.5 204.4 128 206.3 131.2C208.2 134.5 210.5 137.8 214.1 139C217.7 140.2 222.5 138.1 222.6 134.3" fill="#263238"/>
<path d="M207 113.5C210.2 113.8 212.5 116.5 212.5 119.7L208.8 202.4C208.6 212.2 194.5 212.9 184.1 212.6V211.6C173.5 211.4 173 212 172.9 202.7C172.7 187.2 172.7 181.3 172.7 181.4C172.7 181.4 159.4 179.2 156.6 161.7C155.2 153 155.7 138.8 156.5 127.2C157.2 116.8 164.1 103.9 174.5 105.1L207 113.5Z" fill="#FFBE9D"/>
<path d="M159.7 137.3C159.7 138.5 160.6 139.5 161.8 139.6C163 139.7 164.1 138.8 164.1 137.6C164.1 136.4 163.2 135.4 162 135.3C160.8 135.2 159.8 136.1 159.7 137.3Z" fill="#263238"/>
<path d="M159.5 134.7C159.8 135 161.5 133.7 163.9 133.8C166.3 133.8 168.1 135 168.3 134.7C168.4 134.6 168.1 134 167.4 133.5C166.6 132.9 165.4 132.4 163.9 132.4C162.4 132.4 161.1 133 160.4 133.5C159.6 134.1 159.4 134.6 159.5 134.7Z" fill="#263238"/>
<path d="M183.7 137.9C183.7 139.1 184.6 140.1 185.8 140.2C187 140.3 188.1 139.4 188.1 138.2C188.1 137 187.2 136 186 135.9C184.7 135.8 183.7 136.7 183.7 137.9Z" fill="#263238"/>
<path d="M183.1 135.2C183.4 135.5 185.1 134.2 187.5 134.3C189.9 134.3 191.7 135.5 191.9 135.2C192 135.1 191.8 134.5 191 134C190.2 133.4 189 132.9 187.5 132.9C186 132.9 184.7 133.5 184 134C183.2 134.6 183 135.1 183.1 135.2Z" fill="#263238"/>
<path d="M174.4 153C174.4 152.9 172.9 152.6 170.5 152.3C169.9 152.2 169.3 152.1 169.2 151.7C169.1 151.3 169.3 150.6 169.6 149.9C170.2 148.4 170.8 146.9 171.4 145.2C173.9 138.6 175.8 133.1 175.5 133C175.2 132.9 173 138.2 170.4 144.9C169.8 146.5 169.2 148.1 168.7 149.6C168.5 150.3 168.1 151.1 168.4 152C168.6 152.5 169 152.8 169.4 152.9C169.8 153 170.1 153 170.4 153C172.8 153.2 174.4 153.2 174.4 153Z" fill="#263238"/>
<path d="M172.6 181.5C172.6 181.5 184.3 182.3 195.9 175.3C195.9 175.3 190.2 187.3 172.8 185.6L172.6 181.5Z" fill="#EB996E"/>
<path d="M175.4 158.8C176.3 157.7 177.8 157 179.3 157.2C180.3 157.3 181.4 157.8 182 158.7C182.6 159.6 182.8 160.8 182.2 161.6C181.5 162.5 180.2 162.7 179 162.4C177.9 162.1 176.9 161.3 175.9 160.6C175.6 160.4 175.4 160.2 175.2 159.9C175 159.6 175 159.2 175.2 159" fill="#EB996E"/>
<path d="M181.4 154.7C181 154.7 181 157.3 178.8 159.1C176.6 161 173.8 160.7 173.8 161C173.8 161.2 174.4 161.5 175.6 161.5C176.8 161.5 178.4 161.2 179.8 160C181.2 158.9 181.8 157.4 181.8 156.3C181.9 155.4 181.6 154.7 181.4 154.7Z" fill="#263238"/>
<path d="M182.1 131C182.3 131.7 184.7 131.3 187.6 131.7C190.4 132 192.7 132.8 193.1 132.2C193.3 131.9 192.9 131.3 192 130.7C191.1 130.1 189.6 129.5 187.9 129.3C186.2 129.1 184.7 129.4 183.6 129.8C182.5 130.2 182 130.7 182.1 131Z" fill="#263238"/>
<path d="M160.4 127.8C160.8 128.3 162.5 127.8 164.5 127.8C166.5 127.7 168.2 128.2 168.6 127.6C168.8 127.3 168.5 126.8 167.8 126.3C167.1 125.8 165.9 125.4 164.5 125.4C163.1 125.4 161.9 125.9 161.3 126.5C160.4 126.9 160.2 127.5 160.4 127.8Z" fill="#263238"/>
<path d="M218.9 196.8C219 192.4 219.1 187.9 217.4 183.8C215.6 179.8 211.5 176.3 206.9 176.6C203.6 176.8 200.8 178.7 197.8 180.1C192.8 182.4 187.1 183.2 181.7 182.4C179.4 182.1 177.2 181.4 174.9 181.4C172.6 181.3 170.1 182 168.6 183.6C166.8 185.6 166.9 188.5 167.1 191.1C167.4 195.2 167.7 199.3 169 203.1C170.3 207 172.7 210.6 176.4 212.8C181.5 215.8 188.1 215.3 194.2 214.5C199.9 213.8 205.7 212.8 210.7 210.1C215.7 207.3 219.6 202.3 219.3 196.9" fill="#8FA6E3"/>
<g opacity="0.4">
<g opacity="0.4">
<path opacity="0.4" d="M218.9 196.8C219 192.4 219.1 187.9 217.4 183.8C215.6 179.8 211.5 176.3 206.9 176.6C203.6 176.8 200.8 178.7 197.8 180.1C192.8 182.4 187.1 183.2 181.7 182.4C179.4 182.1 177.2 181.4 174.9 181.4C172.6 181.3 170.1 182 168.6 183.6C166.8 185.6 166.9 188.5 167.1 191.1C167.4 195.2 167.7 199.3 169 203.1C170.3 207 172.7 210.6 176.4 212.8C181.5 215.8 188.1 215.3 194.2 214.5C199.9 213.8 205.7 212.8 210.7 210.1C215.7 207.3 219.6 202.3 219.3 196.9" fill="black"/>
</g>
</g>
<path d="M207.3 211.4C207.3 211.4 207.4 211.4 207.6 211.2C207.8 211.1 208.1 210.8 208.4 210.5C209 209.8 209.4 208.4 209.6 206.8C209.9 203.6 210.5 199.1 210.5 194.1C210.5 191.6 210.4 189.2 210.1 187.1C209.8 185 209.3 183 208.4 181.6C207.6 180.2 206.5 179.2 205.8 178.8C205.4 178.6 205.1 178.4 204.9 178.3C204.7 178.2 204.5 178.2 204.5 178.2C204.5 178.2 205 178.4 205.7 178.9C206.4 179.4 207.4 180.3 208.1 181.8C209.7 184.6 209.9 189.2 210 194.1C210 199 209.5 203.5 209.2 206.8C209.1 208.4 208.7 209.7 208.2 210.4C207.7 211.1 207.2 211.4 207.3 211.4Z" fill="#1F4DC5"/>
<path d="M195.5 214.7C195.5 214.7 195.5 214.2 195.4 213.4C195.3 212.5 195.2 211.3 195 209.9C194.7 207 194.2 202.9 193.8 198.5C193.4 194 193 190 192.7 187C192.6 185.6 192.5 184.5 192.4 183.5C192.3 182.7 192.3 182.2 192.2 182.2C192.2 182.2 192.2 182.7 192.2 183.5C192.2 184.3 192.3 185.5 192.4 187C192.6 189.9 192.9 194 193.3 198.5C193.7 203 194.3 207 194.7 209.9C194.9 211.4 195.1 212.5 195.2 213.3C195.4 214.3 195.5 214.7 195.5 214.7Z" fill="#1F4DC5"/>
<path d="M178.2 182.6C178.2 182.6 178.1 182.6 177.8 182.6C177.6 182.7 177.2 182.8 176.9 183.1C176.2 183.7 175.7 185.1 175.5 186.7C175.2 188.3 175.2 190.3 175.3 192.4C175.4 194.5 175.8 196.9 176.1 199.3C176.4 201.7 176.9 204.1 177.5 206.1C178.1 208.2 179 209.9 179.9 211.3C180.8 212.7 181.7 213.6 182.4 214.2C182.7 214.5 183 214.7 183.2 214.8C183.4 214.9 183.5 215 183.5 215C183.6 214.9 181.8 213.8 180.1 211.1C179.3 209.7 178.4 208 177.8 206C177.2 204 176.8 201.7 176.4 199.2C176.1 196.8 175.7 194.4 175.6 192.3C175.4 190.2 175.4 188.3 175.7 186.7C175.9 185.1 176.3 183.9 176.9 183.2C177.6 182.6 178.2 182.7 178.2 182.6Z" fill="#1F4DC5"/>
<path d="M172.2 181.7C175.9 183.2 175.8 189.2 178.5 192C182.1 195.7 188.6 193.1 193.3 195.3C199.5 198.2 199.4 207.5 204.7 211.9C207.9 214.6 212.8 215.1 215.3 218.5C217.9 222 216.3 227.8 212.2 229.4C210.9 228.6 209.6 227.8 208.3 226.9C209.4 228.7 208.8 231.1 207.5 232.8C206.2 234.4 204.2 235.5 202.4 236.4C200 236.1 198.8 233.5 198.2 231.2C197.7 228.9 197.3 226.3 195.5 224.8C193.3 223 189.9 223.7 187.4 222.3C182.5 219.5 184.6 211.1 180.2 207.5C177.4 205.2 173.3 205.9 170 204.5C165.2 202.5 163.3 196.8 162.8 191.6C162.3 186.5 162.6 181 160 176.5" fill="#263238"/>
<path d="M219.1 170.8C214.3 171.8 209.1 170.3 205.5 167C201.9 163.7 200.1 158.6 200.7 153.7C201.2 149.4 203.5 145.1 202.1 141C200.1 135.6 192.6 134 190.6 128.7C189.4 125.6 190.5 122 189.2 118.9C188 116 185 114.4 182 113.3C179.1 112.2 175.9 111.5 173.5 109.6C171 107.7 169.5 104.1 171.1 101.4C184.1 103 196.9 106.1 209.2 110.6C212 111.7 215 112.9 216.7 115.5C218.5 118.2 218.4 121.6 218.2 124.8C217.5 140.4 216.7 156.1 216 171.7" fill="#263238"/>
<path d="M228.5 185.3C228.5 185.3 228.6 184.9 228.6 184.1C228.6 183.3 228.4 182.2 227.9 180.8C227.4 179.4 226.4 177.9 225 176.4C223.6 174.9 221.6 173.5 219.3 172.2C217 170.9 214.4 169.8 211.8 168.2C209.2 166.7 206.6 164.6 204.9 161.7C204.1 160.2 203.5 158.5 203.6 156.8C203.6 155 204 153.2 204.4 151.4C204.8 149.6 205.2 147.6 204.8 145.6C204.6 144.6 204.2 143.7 203.6 142.9C203 142.1 202.2 141.5 201.3 140.9C199.6 139.9 197.7 139.3 195.9 138.5C194.2 137.7 192.6 136.6 191.7 135C190.8 133.4 190.5 131.6 190.5 129.8C190.4 128 190.5 126.3 190.5 124.5C190.5 122.8 190.3 121.1 189.7 119.5C189.5 119.1 189.4 118.7 189.2 118.4C189 118 188.8 117.7 188.5 117.4C188 116.8 187.4 116.2 186.8 115.7C184.2 113.9 181.3 113.3 178.8 112.7C176.3 112.1 174 111.4 172.3 110.3C170.6 109.2 169.6 107.6 169.2 106.2C168.8 104.8 168.9 103.7 169.1 103C169.3 102.3 169.6 102 169.6 101.9C169.6 101.9 169.3 102.2 169 102.9C168.7 103.6 168.6 104.8 169 106.2C169.4 107.6 170.4 109.3 172.1 110.5C173.8 111.7 176.1 112.4 178.6 113.1C181.1 113.7 183.9 114.3 186.4 116.1C187 116.5 187.5 117.1 188 117.7C188.2 118 188.4 118.3 188.6 118.7C188.8 119 188.9 119.4 189.1 119.8C189.6 121.3 189.8 123 189.8 124.7C189.8 126.4 189.7 128.2 189.8 130C189.9 131.8 190.1 133.7 191.1 135.4C192 137.1 193.8 138.3 195.5 139.1C197.3 139.9 199.1 140.5 200.8 141.5C201.6 142 202.4 142.6 203 143.3C203.6 144 204 144.9 204.1 145.8C204.5 147.6 204.1 149.5 203.7 151.3C203.3 153.1 202.9 154.9 202.9 156.8C202.9 158.6 203.4 160.4 204.3 161.9C206.1 164.9 208.8 167 211.4 168.6C214.1 170.1 216.7 171.3 219 172.5C221.3 173.7 223.2 175.1 224.6 176.5C226 178 227 179.5 227.6 180.8C228.2 182.1 228.3 183.2 228.4 184C228.5 184.9 228.5 185.3 228.5 185.3Z" fill="#263238"/>
<path d="M177.8 197.2C177.8 197.1 176.6 197.5 174.4 197.5C172.2 197.5 169 196.8 165.7 194.6C164.1 193.5 162.5 191.9 161.4 189.9C160.2 187.9 159.7 185.5 159.2 182.9C158.7 180.3 158.3 177.5 156.9 175C155.4 172.4 152.8 170.8 150.6 168.8C148.3 166.8 146.9 164.1 146.5 161.4C146.3 160 146.3 158.6 146.6 157.3C146.9 156 147.4 154.8 148 153.6C149.3 151.4 150.9 149.4 151.6 147.1C152.4 144.9 152.5 142.6 152.3 140.6C151.9 136.6 150.7 133.6 149.9 131.5C149.5 130.5 149.1 129.7 148.9 129.2C148.7 128.7 148.5 128.4 148.5 128.4C148.5 128.4 148.6 128.7 148.8 129.2C149 129.8 149.3 130.6 149.7 131.6C150.4 133.7 151.6 136.7 152 140.6C152.2 142.5 152 144.7 151.3 146.9C150.6 149.1 149 151 147.7 153.3C147 154.4 146.5 155.7 146.2 157.1C145.9 158.5 145.9 159.9 146.1 161.4C146.3 162.8 146.8 164.3 147.5 165.6C148.2 166.9 149.2 168.1 150.3 169.1C152.6 171.1 155.1 172.8 156.5 175.2C157.9 177.6 158.3 180.4 158.8 183C159.3 185.6 159.8 188.1 161.1 190.1C162.3 192.2 163.9 193.7 165.6 194.8C168.9 197.1 172.3 197.7 174.5 197.6C175.1 197.6 175.6 197.6 176 197.5C176.4 197.5 176.8 197.4 177.1 197.3C177.5 197.3 177.8 197.3 177.8 197.2Z" fill="#263238"/>
<path d="M117.5 303.5C125.5 303.5 133.2 299.4 137.7 292.1L261.6 89.7001C262.2 88.7001 261.9 87.3001 260.9 86.7001C259.9 86.1001 258.5 86.4001 257.9 87.4001L134.1 289.9C128.6 298.9 117 301.9 107.8 296.6C103.1 293.9 99.8999 289.6 98.5999 284.4C97.2999 279.2 98.1999 273.8 101.1 269.3L104.9 263.4C105.5 262.4 105.3 261 104.2 260.4C103.2 259.7 101.8 260 101.2 261.1L97.3999 267C93.8999 272.5 92.7999 279.1 94.2999 285.5C95.8999 291.9 99.8999 297.2 105.5 300.5C109.3 302.5 113.5 303.5 117.5 303.5Z" fill="#E9EEFA"/>
<path d="M105.8 37.8001C105.8 37.8001 149.3 40.4001 170.4 83.5001C170.4 83.5001 218.3 79.5001 233 118.7C233 118.7 288.5 112.4 300.4 163.5C300.4 163.5 344.8 161.9 347.4 202.3C347.4 202.3 377.4 203.5 379.4 233.9C379.4 233.9 404.6 109.8 311.9 44.7001C213.9 -24.0999 105.8 37.8001 105.8 37.8001Z" fill="#E9EEFA"/>
<path d="M159.5 302.9L164.7 279.7L159.1 277.4C158.3 276.8 155.4 274.6 151.5 270.5C150.3 269.2 149.3 267.7 148.6 266.1C147.7 264.2 146.7 261.5 146.6 259.9C146.5 257.9 143.9 257.1 143 258.7C142 260.2 142.3 265.8 145.4 271.4C147.5 275.2 143.9 274.7 140.3 273.6C137.6 272.8 134.7 274.1 133.6 276.7L130.3 284.3C128.2 289.1 130.6 294.8 135.5 296.6C137.1 297.2 138.3 297.6 138.3 297.6L159.5 302.9Z" fill="#FFBE9D"/>
<path d="M353.6 138.3C353.6 138.4 355.3 138.4 358 138.8C359.3 139 360.9 139.4 362.6 139.9C364.3 140.5 366.1 141.2 367.9 142.2C369.7 143.2 371.3 144.3 372.7 145.4C374.1 146.5 375.2 147.7 376.1 148.7C377.9 150.7 378.8 152.2 378.9 152.1C378.9 152.1 378.7 151.7 378.3 151.1C378.1 150.8 377.8 150.4 377.5 149.9C377.2 149.5 376.8 149 376.4 148.4C375.5 147.3 374.4 146.2 373 145C371.6 143.8 370 142.7 368.1 141.7C366.3 140.7 364.4 140 362.7 139.4C361 138.9 359.4 138.5 358 138.4C357.3 138.3 356.7 138.3 356.2 138.2C355.7 138.2 355.2 138.1 354.8 138.2C354 138.2 353.6 138.2 353.6 138.3Z" fill="#1F4DC5"/>
<path d="M314.5 117C314.5 117 315.2 116.8 316.5 116.3C317.8 115.9 319.6 115.4 322 115C324.4 114.7 327.2 114.6 330.3 115.1C333.4 115.6 336.8 116.6 339.9 118.4C343.1 120.2 345.7 122.5 347.7 124.9C349.7 127.3 351.2 129.8 352.1 132C353.1 134.2 353.6 136 353.9 137.4C354.2 138.7 354.3 139.4 354.4 139.4C354.4 139.4 354.4 139.2 354.4 138.9C354.3 138.6 354.3 138 354.2 137.4C354 136.1 353.5 134.2 352.6 131.9C351.7 129.7 350.3 127.1 348.2 124.7C346.2 122.2 343.5 119.9 340.3 118C337.1 116.2 333.7 115.2 330.5 114.7C327.3 114.3 324.4 114.4 322 114.7C319.6 115.1 317.7 115.6 316.5 116.1C315.9 116.3 315.4 116.6 315.1 116.7C314.6 116.9 314.5 116.9 314.5 117Z" fill="#1F4DC5"/>
<path d="M264 76.4C264 76.5 265 76.1 266.8 75.8C268.6 75.4 271.3 75.2 274.6 75.5C276.3 75.6 278 76 279.9 76.4C281.8 76.9 283.8 77.5 285.8 78.4C287.8 79.3 289.9 80.3 291.9 81.6C293.9 82.9 295.9 84.4 297.7 86.2C301.3 89.7 304.2 93.7 306.5 97.4C308.8 101.2 310.6 104.7 312 107.7C313.4 110.7 314.5 113.2 315.3 114.9C315.7 115.7 316 116.4 316.2 116.9C316.4 117.3 316.5 117.6 316.5 117.6C316.5 117.6 316.4 117.3 316.3 116.9C316.1 116.4 315.8 115.7 315.5 114.9C314.8 113.2 313.8 110.7 312.4 107.6C311 104.6 309.3 101 307 97.2C304.7 93.4 301.8 89.4 298.2 85.8C296.4 84 294.4 82.5 292.3 81.2C290.3 79.9 288.2 78.8 286.2 77.9C284.2 77 282.1 76.4 280.2 75.9C278.3 75.5 276.5 75.2 274.8 75.1C271.5 74.9 268.7 75.2 266.9 75.6C266 75.8 265.3 76 264.8 76.2C264.3 76.3 264 76.4 264 76.4Z" fill="#1F4DC5"/>
<path d="M215.9 46.6001C215.9 46.6001 216.8 46.4001 218.3 46.0001C219.8 45.6001 222.1 45.2001 225 45.1001C230.7 44.9001 238.8 46.5001 246 51.4001C247.8 52.6001 249.5 54.0001 251 55.3001C252.5 56.7001 253.9 58.2001 255.1 59.6001C257.5 62.5001 259.4 65.4001 260.7 67.9001C262.1 70.4001 263 72.5001 263.7 74.0001C264 74.7001 264.2 75.3001 264.4 75.7001C264.6 76.1001 264.7 76.3001 264.7 76.3001C264.7 76.3001 264.7 76.1001 264.5 75.7001C264.4 75.3001 264.2 74.7001 263.9 74.0001C263.3 72.5001 262.4 70.3001 261.1 67.8001C259.8 65.2001 257.9 62.3001 255.5 59.4001C254.3 57.9001 252.9 56.4001 251.4 55.0001C249.9 53.6001 248.2 52.2001 246.4 51.0001C239 46.0001 230.8 44.4001 225.1 44.7001C222.2 44.8001 219.9 45.3001 218.4 45.8001C217.6 46.0001 217 46.3001 216.6 46.4001C216.1 46.5001 215.9 46.6001 215.9 46.6001Z" fill="#1F4DC5"/>
<path d="M165.6 23.5001C165.6 23.5001 166.4 23.3001 167.8 22.8001C169.2 22.4001 171.3 21.8001 174 21.5001C176.6 21.2001 179.8 21.1001 183.3 21.5001C186.8 22.0001 190.5 23.0001 194.2 24.8001C197.8 26.6001 201 28.9001 203.5 31.4001C206 33.9001 207.9 36.4001 209.2 38.7001C210.6 41.0001 211.4 43.0001 212 44.4001C212.5 45.8001 212.8 46.6001 212.8 46.6001C212.8 46.6001 212.8 46.4001 212.7 46.0001C212.6 45.6001 212.5 45.1001 212.2 44.3001C211.7 42.9001 210.9 40.9001 209.6 38.5001C208.3 36.2001 206.4 33.5001 203.9 31.0001C201.4 28.5001 198.2 26.1001 194.5 24.3001C190.8 22.5001 187 21.5001 183.4 21.0001C179.9 20.6001 176.6 20.7001 174 21.1001C171.3 21.5001 169.2 22.1001 167.8 22.6001C167.1 22.8001 166.6 23.1001 166.2 23.2001C165.7 23.4001 165.5 23.5001 165.6 23.5001Z" fill="#1F4DC5"/>
<path d="M148.8 19C148.8 19.1 149.5 19.1 150.6 19.3C151.7 19.5 153.2 20 154.7 20.9C156.2 21.8 157.3 22.9 158 23.8C158.7 24.7 159 25.3 159.1 25.3C159.2 25.3 158.9 24.6 158.3 23.6C157.7 22.6 156.5 21.4 155 20.4C153.5 19.5 151.8 19 150.7 18.9C149.5 18.9 148.8 19 148.8 19Z" fill="#1F4DC5"/>
<path d="M351.4 179.4C351.4 179.5 353.6 179.3 357 179.7C357.4 179.8 357.9 179.8 358.3 179.9C358.8 180 359.2 180.1 359.7 180.2C360.7 180.4 361.7 180.7 362.8 181.1C364.9 181.8 367.2 182.9 369.5 184.2C371.7 185.6 373.7 187.2 375.3 188.8C376.1 189.6 376.9 190.4 377.5 191.2C377.8 191.6 378.1 192 378.4 192.3C378.7 192.7 378.9 193.1 379.2 193.4C381.1 196.3 381.9 198.3 382 198.2C382 198.2 381.8 197.7 381.5 196.8C381.3 196.3 381.1 195.8 380.7 195.2C380.4 194.6 380 193.9 379.5 193.2C379.3 192.8 379 192.5 378.7 192.1C378.4 191.7 378.1 191.3 377.8 190.9C377.2 190.1 376.4 189.3 375.6 188.4C374 186.8 372 185.1 369.7 183.7C367.4 182.3 365.1 181.3 362.9 180.6C361.8 180.3 360.7 179.9 359.7 179.8C359.2 179.7 358.7 179.6 358.2 179.5C357.7 179.4 357.3 179.4 356.8 179.3C355.9 179.2 355.1 179.2 354.5 179.2C353.8 179.2 353.2 179.2 352.7 179.2C351.9 179.3 351.4 179.4 351.4 179.4Z" fill="#1F4DC5"/>
<path d="M305.3 150.1C305.3 150.1 305.5 150.1 305.9 150C306.3 149.9 306.9 149.8 307.7 149.7C309.3 149.5 311.5 149.2 314.4 149.3C317.2 149.3 320.6 149.7 324.2 150.6C327.8 151.5 331.6 153.1 335.3 155.4C338.9 157.7 342 160.5 344.4 163.4C346.8 166.3 348.6 169.1 349.8 171.7C351 174.2 351.8 176.4 352.3 177.9C352.6 178.6 352.7 179.3 352.8 179.6C352.9 180 353 180.2 353 180.2C353 180.2 353 180 352.9 179.6C352.8 179.2 352.7 178.6 352.5 177.8C352.1 176.3 351.4 174.1 350.2 171.5C349 168.9 347.2 166 344.8 163.1C342.4 160.2 339.3 157.4 335.6 155C331.9 152.7 328 151.1 324.4 150.2C320.7 149.3 317.3 148.9 314.5 149C311.7 149 309.4 149.3 307.8 149.6C307 149.7 306.4 149.9 306 150C305.5 150 305.3 150.1 305.3 150.1Z" fill="#1F4DC5"/>
<path d="M241.2 106.4C241.2 106.4 241.5 106.4 242.1 106.3C242.7 106.2 243.5 106 244.6 105.9C246.8 105.6 250 105.3 254 105.5C256 105.6 258.1 105.9 260.4 106.4C262.7 106.9 265.1 107.6 267.5 108.5C272.4 110.4 277.5 113.2 282.5 116.5C285 118.2 287.3 120 289.4 121.9C291.5 123.8 293.4 125.8 295.1 127.8C298.5 131.8 301 135.8 302.8 139.3C304.6 142.8 305.8 145.8 306.5 147.9C306.9 148.9 307.1 149.8 307.3 150.3C307.5 150.9 307.6 151.1 307.6 151.1C307.6 151.1 307.5 150.8 307.4 150.2C307.2 149.6 307 148.8 306.7 147.7C306 145.6 304.9 142.5 303.1 139C301.3 135.5 298.8 131.4 295.4 127.3C293.7 125.3 291.8 123.3 289.7 121.3C287.6 119.4 285.2 117.5 282.7 115.8C277.6 112.5 272.5 109.7 267.6 107.8C265.1 106.8 262.7 106.1 260.4 105.7C258.1 105.2 255.9 105 253.9 104.9C249.9 104.7 246.7 105.1 244.5 105.5C243.4 105.7 242.6 105.9 242 106C241.5 106.3 241.2 106.4 241.2 106.4Z" fill="#1F4DC5"/>
<path d="M178.3 73.4C178.3 73.4 178.6 73.4 179.1 73.3C179.6 73.2 180.3 73.1 181.3 72.9C183.2 72.6 186 72.3 189.5 72.3C193 72.3 197.1 72.6 201.6 73.6C203.8 74.1 206.2 74.8 208.5 75.6C210.8 76.4 213.2 77.5 215.5 78.8C220.1 81.3 224.3 84.2 227.7 87.3C231.1 90.4 233.7 93.6 235.6 96.5C237.5 99.4 238.6 102 239.4 103.8C239.8 104.7 240 105.4 240.2 105.9C240.4 106.4 240.5 106.6 240.5 106.6C240.5 106.6 240.4 106.3 240.3 105.8C240.1 105.3 239.9 104.6 239.6 103.7C238.9 101.9 237.8 99.3 236 96.3C234.2 93.3 231.5 90 228.1 86.9C224.7 83.8 220.5 80.9 215.8 78.3C213.5 77 211.1 76 208.7 75.1C206.3 74.2 204 73.6 201.7 73.1C197.2 72.1 193 71.8 189.5 71.9C186 72 183.2 72.3 181.3 72.7C180.3 72.9 179.6 73.1 179.1 73.2C178.6 73.3 178.3 73.3 178.3 73.4Z" fill="#1F4DC5"/>
<path d="M131.9 35.6001C131.9 35.6001 132.1 35.6001 132.6 35.6001C133 35.6001 133.7 35.6001 134.5 35.7001C136.2 35.8001 138.6 36.0001 141.5 36.5001C147.3 37.5001 155.3 40.4001 162.4 46.1001C169.5 51.8001 173.8 59.1001 176 64.6001C177.1 67.4001 177.8 69.7001 178.2 71.3001C178.4 72.1001 178.5 72.7001 178.6 73.2001C178.7 73.6001 178.8 73.9001 178.8 73.8001C178.8 73.8001 178.8 73.6001 178.7 73.1001C178.6 72.7001 178.5 72.0001 178.4 71.2001C178.1 69.6001 177.4 67.2001 176.3 64.4001C174.2 58.8001 169.8 51.5001 162.7 45.7001C155.6 39.9001 147.5 37.1001 141.6 36.1001C138.6 35.6001 136.2 35.5001 134.5 35.5001C133.7 35.5001 133 35.5001 132.6 35.5001C132.2 35.5001 131.9 35.6001 131.9 35.6001Z" fill="#1F4DC5"/>
<path d="M118.7 32.2C118.7 32.3 119.4 32.2 120.5 32.1C121.6 32.1 123.1 32.2 124.6 32.8C126.1 33.4 127.4 34.2 128.2 34.9C129 35.6 129.5 36.1 129.5 36.1C129.5 36.1 129.2 35.5 128.4 34.7C127.6 33.9 126.3 33 124.7 32.4C123.1 31.8 121.5 31.7 120.4 31.8C119.3 31.9 118.7 32.1 118.7 32.2Z" fill="#1F4DC5"/>
<path d="M346.2 93.9C346.3 94 346.8 93.6 347.7 93.1C348.6 92.7 350.1 92.2 351.6 92.3C353.2 92.4 354.6 92.9 355.5 93.3C356.5 93.7 357 94.1 357.1 94C357.1 94 356.6 93.5 355.7 93C354.8 92.5 353.3 91.9 351.6 91.8C349.9 91.7 348.4 92.2 347.5 92.8C346.6 93.4 346.1 93.9 346.2 93.9Z" fill="#1F4DC5"/>
<path d="M318.9 83.3001C318.9 83.4001 320.6 82.4001 323.7 81.8001C326.7 81.2001 331.2 81.1001 335.6 82.9001C340 84.7001 343.1 88.0001 344.7 90.6001C346.4 93.2001 346.9 95.1001 347 95.1001C347 95.1001 346.9 94.6001 346.6 93.8001C346.3 93.0001 345.8 91.8001 345 90.4001C343.4 87.7001 340.3 84.3001 335.8 82.4001C331.3 80.5001 326.7 80.7001 323.7 81.4001C322.2 81.8001 321 82.2001 320.2 82.6001C319.3 83.0001 318.9 83.2001 318.9 83.3001Z" fill="#1F4DC5"/>
<path d="M285.1 56.3C285.1 56.3 285.8 56.4 287 56.5C288.2 56.6 289.9 56.8 292 57.3C294.1 57.7 296.6 58.4 299.2 59.5C301.8 60.5 304.7 62.0001 307.3 63.9001C312.6 67.8001 316.1 72.7001 318.1 76.5C319.1 78.4 319.7 80 320.1 81.2C320.5 82.3 320.7 83 320.8 83C320.8 83 320.8 82.8 320.7 82.5C320.6 82.2001 320.5 81.7 320.3 81.2C320 80 319.3 78.4001 318.4 76.4001C316.5 72.5001 313 67.4 307.6 63.5C304.9 61.5 302 60.1 299.4 59.1C296.7 58.1 294.2 57.4 292.1 57C290 56.6 288.2 56.4001 287 56.4001C286.4 56.4001 285.9 56.4001 285.6 56.4001C285.3 56.3001 285.1 56.3 285.1 56.3Z" fill="#1F4DC5"/>
<path d="M258.4 31.9C258.4 32 260.5 32.3 263.8 33.4C264.6 33.7 265.5 34 266.4 34.5C267.3 34.9 268.3 35.4 269.3 36C271.3 37.2 273.3 38.6 275.3 40.4C277.2 42.2 278.9 44.1 280.2 45.9C280.8 46.9 281.5 47.7 281.9 48.6C282.1 49 282.4 49.5 282.6 49.9C282.8 50.3 283 50.7 283.2 51.1C284.6 54.2 285.1 56.4 285.2 56.3C285.2 56.3 285.1 55.8 284.9 54.8C284.8 54.3 284.6 53.7 284.4 53.1C284.2 52.4 283.9 51.7 283.6 50.9C283.4 50.5 283.2 50.1 283 49.6C282.8 49.2 282.5 48.7 282.3 48.3C281.8 47.4 281.2 46.5 280.6 45.5C279.3 43.6 277.6 41.7 275.7 39.8C273.7 38 271.6 36.6 269.6 35.4C268.6 34.9 267.6 34.3 266.7 34C265.8 33.6 264.9 33.3 264 33C263.2 32.7 262.4 32.5 261.7 32.4C261 32.2 260.4 32.1 260 32.1C258.9 32 258.4 31.9 258.4 31.9Z" fill="#1F4DC5"/>
<path d="M247 20C247 20.1 247.8 20.4 249 21C250.2 21.6 251.8 22.7 253.3 24.2C254.8 25.7 255.8 27.4 256.4 28.6C257 29.9 257.2 30.7 257.3 30.7C257.4 30.7 257.2 29.8 256.7 28.5C256.2 27.2 255.2 25.4 253.7 23.9C252.2 22.3 250.5 21.3 249.2 20.7C247.9 20.1 247 19.9 247 20Z" fill="#1F4DC5"/>
<path d="M312.8 45.4001C312.8 45.4001 313.2 45.8001 314 46.6001C314.8 47.4001 316.1 48.4001 317.6 49.9001C320.7 52.9001 324.9 57.4001 329.3 63.6001C333.8 69.8001 338.5 77.6001 342.6 86.8001C344.6 91.4001 346.6 96.3001 348.2 101.6C349.8 106.9 351 112.4 351.8 118.1C354.7 141.3 353 162.5 351.4 177.7C350.6 185.3 349.8 191.4 349.2 195.7C348.9 197.7 348.7 199.4 348.6 200.6C348.5 201.7 348.4 202.3 348.5 202.3C348.5 202.3 348.7 201.7 348.9 200.6C349.1 199.4 349.4 197.8 349.7 195.7C350.4 191.5 351.3 185.3 352.2 177.7C354 162.5 355.8 141.2 352.9 117.9C352.1 112.1 350.8 106.5 349.2 101.2C347.6 95.9001 345.6 90.9001 343.5 86.3001C339.3 77.1001 334.4 69.2001 329.9 63.1001C325.3 56.9001 321 52.4001 317.8 49.5001C316.2 48.0001 314.9 47.0001 314 46.3001C313.3 45.7001 312.9 45.3001 312.8 45.4001Z" fill="#263238"/>
<path d="M312.8 45.4C312.7 45.5 313.9 46.8 315.3 49.5C316.8 52.2 318.3 56.4 319.1 61.9C319.9 67.4 319.9 74 319.4 81.3C318.9 88.6 318.2 96.6 317 105C314.7 121.8 310.9 136.6 307.5 147.2C305.8 152.5 304.3 156.7 303.2 159.6C302.7 161 302.3 162.1 302 162.9C301.7 163.7 301.6 164.1 301.6 164.1C301.6 164.1 301.8 163.7 302.2 163C302.6 162.1 303.1 161.1 303.6 159.7C304.8 156.8 306.5 152.6 308.3 147.4C311.9 136.9 315.9 122 318.2 105.1C319.4 96.7 320.1 88.6 320.5 81.3C321 74 320.9 67.3 320 61.8C319.1 56.3 317.4 52 315.8 49.3C315 48 314.3 47 313.7 46.4C313.2 45.7 312.9 45.4 312.8 45.4Z" fill="#263238"/>
<path d="M308.9 42.6001C308.9 42.6001 308.4 42.3001 307.5 41.8001C306.6 41.3001 305.2 40.5001 303.4 39.7001C299.8 38.0001 294.5 35.6001 287.7 33.6001C280.9 31.6001 272.3 30.2001 262.9 30.7001C253.4 31.2001 243.2 33.5001 233 37.1001C212.3 44.3001 196 56.1001 185.5 65.5001C180.2 70.2001 176.2 74.4001 173.5 77.4001C172.2 78.9001 171.2 80.1001 170.5 80.9001C169.8 81.7001 169.5 82.1001 169.5 82.2001C169.5 82.2001 169.9 81.8001 170.6 81.1001C171.3 80.4001 172.4 79.2001 173.7 77.8001C176.4 74.9001 180.5 70.9001 185.9 66.2001C196.6 57.0001 212.8 45.4001 233.3 38.2001C243.5 34.6001 253.6 32.3001 262.9 31.8001C272.2 31.3001 280.7 32.5001 287.5 34.4001C294.3 36.3001 299.6 38.5001 303.3 40.1001C305.1 40.9001 306.5 41.6001 307.4 42.0001C308.4 42.5001 308.9 42.7001 308.9 42.6001Z" fill="#263238"/>
<path d="M119.6 39.9C119.6 39.9 119.8 39.9001 120.1 39.7001C120.5 39.5 120.9 39.3 121.5 39.1C122.8 38.5 124.5 37.7001 126.7 36.7001C127.8 36.2001 129.1 35.6 130.4 34.9C131.8 34.3 133.3 33.7 135 33.1C138.3 31.8 142 30.2 146.2 28.9C148.3 28.2 150.5 27.5 152.8 26.7C155.1 26 157.6 25.4 160.1 24.7C165.1 23.2 170.6 22.2 176.4 21C188 19 200.8 17.5 214.4 17.4C228 17.4 240.8 18.8 252.4 20.9C258.1 22.2 263.6 23.2 268.6 24.9C271.1 25.7 273.5 26.3 275.8 27.1C278.1 28 280.2 28.8 282.3 29.6C286.5 31 290.1 32.9 293.3 34.4C294.9 35.2 296.4 35.8 297.7 36.5C299 37.2001 300.2 37.9 301.3 38.6C303.4 39.8 305.1 40.7 306.3 41.4C306.8 41.7 307.3 41.9 307.6 42.1C307.9 42.3 308.1 42.3 308.1 42.3C308.1 42.3 308 42.2001 307.7 42C307.4 41.8 306.9 41.5 306.4 41.2001C305.2 40.5 303.6 39.5 301.5 38.2001C300.4 37.6 299.2 36.8 297.9 36.1C296.6 35.4 295.1 34.7 293.5 33.9C290.3 32.4 286.7 30.4 282.5 28.9C280.4 28.1 278.2 27.2 276 26.3C273.7 25.5 271.3 24.8 268.8 24C263.8 22.3 258.3 21.2 252.6 19.9C241 17.7 228 16.3 214.4 16.3C200.8 16.4 187.8 17.9 176.2 20C170.4 21.3 164.9 22.3 159.9 23.8C157.4 24.5 154.9 25.2 152.6 25.9C150.3 26.7 148.1 27.5 146 28.2C141.7 29.6 138.1 31.2 134.8 32.6C133.2 33.3 131.7 33.9 130.3 34.5C129 35.2001 127.7 35.8 126.6 36.4C124.4 37.5 122.7 38.4 121.5 39C121 39.3 120.5 39.5 120.2 39.7001C119.8 39.8001 119.6 39.8 119.6 39.9Z" fill="#263238"/>
<path d="M308.9 42.6001C308.9 42.6001 308.5 42.7001 307.9 42.9001C307.2 43.2001 306.2 43.5001 305 44.1001C302.5 45.2001 298.9 46.9001 294.7 49.4001C290.5 51.9001 285.6 55.1001 280.6 59.3001C275.6 63.5001 270.6 68.5001 265.6 74.0001C255.6 85.1001 247.7 96.1001 242.1 104.1C239.3 108.1 237.1 111.4 235.6 113.7C234.9 114.8 234.4 115.6 233.9 116.3C233.5 116.9 233.3 117.2 233.4 117.3C233.4 117.3 233.7 117 234.1 116.5C234.6 115.8 235.2 115 236 114C237.7 111.7 240 108.5 242.8 104.7C248.6 96.8001 256.5 85.9001 266.5 74.9001C271.5 69.4001 276.5 64.3001 281.4 60.2001C286.3 56.0001 291 52.7001 295.2 50.2001C299.4 47.7001 302.9 45.9001 305.3 44.6001C307.6 43.4001 308.9 42.7001 308.9 42.6001Z" fill="#263238"/>
</g>
</g>
<defs>
<clipPath id="clip0_106_1237">
<rect width="460" height="318" fill="white"/>
</clipPath>
<clipPath id="clip1_106_1237">
<rect width="304.5" height="334" fill="white" transform="matrix(-1 0 0 1 382.5 12)"/>
</clipPath>
</defs>
</svg>
